<svg width="47" height="44" viewBox="0 0 47 44" fill="none" xmlns="http://www.w3.org/2000/svg">
<path d="M42.7575 0H3.27876C1.46979 0 0 1.42411 0 3.17232V40.8277C0 42.5759 1.46979 44 3.27876 44H42.7575C44.5664 44 46.0465 42.5759 46.0465 40.8277V3.17232C46.0465 1.42411 44.5664 0 42.7575 0ZM13.9167 37.7143H7.09198V16.7161H13.927V37.7143H13.9167ZM10.5044 13.8482C8.31509 13.8482 6.54724 12.1491 6.54724 10.067C6.54724 7.98482 8.31509 6.28571 10.5044 6.28571C12.6833 6.28571 14.4615 7.98482 14.4615 10.067C14.4615 12.1589 12.6936 13.8482 10.5044 13.8482ZM39.4993 37.7143H32.6745V27.5C32.6745 25.0643 32.6231 21.9312 29.1285 21.9312C25.5723 21.9312 25.0275 24.583 25.0275 27.3232V37.7143H18.2028V16.7161H24.75V19.5839H24.8425C25.7573 17.9339 27.9876 16.1955 31.3075 16.1955C38.2145 16.1955 39.4993 20.5464 39.4993 26.2036V37.7143Z" fill="black"/>
</svg>
